HIERARCHY
ROOT Pelvis
{
	OFFSET 0.000000 0.000000 0.000000
	CHANNELS 6 Xposition Yposition Zposition Xrotation Yrotation Zrotation
	JOINT LeftUpLeg_virtual
	{
		OFFSET 0.000000 0.000000 0.000000
		CHANNELS 3 Xrotation Yrotation Zrotation
		JOINT LeftUpLeg
		{
			OFFSET 18.735201 -5.666702 -4.541200
			CHANNELS 3 Xrotation Yrotation Zrotation
			JOINT LeftLeg
			{
				OFFSET -0.021200 -31.938179 0.493100
				CHANNELS 3 Xrotation Yrotation Zrotation
				JOINT LeftFoot
				{
					OFFSET 0.021200 -31.938179 -4.336299
					CHANNELS 3 Xrotation Yrotation Zrotation
					JOINT LeftToeBase
					{
						OFFSET 0.943001 -26.722000 15.023500
						CHANNELS 3 Xrotation Yrotation Zrotation
						End Site
						{
							OFFSET 0 0 0
						}
					}
				}
			}
		}
	}
	JOINT RightUpLeg_virtual
	{
		OFFSET 0.000000 0.000000 0.000000
		CHANNELS 3 Xrotation Yrotation Zrotation
		JOINT RightUpLeg
		{
			OFFSET -18.735201 -5.666702 -4.541200
			CHANNELS 3 Xrotation Yrotation Zrotation
			JOINT RightLeg
			{
				OFFSET 0.018946 -31.938133 0.493100
				CHANNELS 3 Xrotation Yrotation Zrotation
				JOINT RightFoot
				{
					OFFSET -0.018946 -31.938126 -4.336299
					CHANNELS 3 Xrotation Yrotation Zrotation
					JOINT RightToeBase
					{
						OFFSET -0.943001 -26.722004 15.023500
						CHANNELS 3 Xrotation Yrotation Zrotation
						End Site
						{
							OFFSET 0 0 0
						}
					}
				}
			}
		}
	}
	JOINT Hips_virtual
	{
		OFFSET 0.000000 0.000000 0.000000
		CHANNELS 3 Xrotation Yrotation Zrotation
		JOINT Hips
		{
			OFFSET -0.000000 -0.000000 -0.000000
			CHANNELS 3 Xrotation Yrotation Zrotation
			JOINT Spine
			{
				OFFSET 0.000000 10.199997 -0.299500
				CHANNELS 3 Xrotation Yrotation Zrotation
				JOINT Spine1
				{
					OFFSET 0.000000 11.900002 -1.516600
					CHANNELS 3 Xrotation Yrotation Zrotation
					JOINT Spine2
					{
						OFFSET 0.000000 13.600006 -2.842500
						CHANNELS 3 Xrotation Yrotation Zrotation
						JOINT Neck_virtual
						{
							OFFSET 0.000000 0.000000 0.000000
							CHANNELS 3 Xrotation Yrotation Zrotation
							JOINT Neck
							{
								OFFSET 0.000000 9.624100 -2.890100
								CHANNELS 3 Xrotation Yrotation Zrotation
								JOINT Head
								{
									OFFSET 0.000000 14.068802 -1.351900
									CHANNELS 3 Xrotation Yrotation Zrotation
									End Site
									{
										OFFSET 0 0 0
									}
								}
							}
						}
						JOINT LeftShoulder_virtual
						{
							OFFSET 0.000000 0.000000 0.000000
							CHANNELS 3 Xrotation Yrotation Zrotation
							JOINT LeftShoulder
							{
								OFFSET 15.263000 10.923401 -0.547700
								CHANNELS 3 Xrotation Yrotation Zrotation
								JOINT LeftArm
								{
									OFFSET 25.438599 -2.830597 -13.032500
									CHANNELS 3 Xrotation Yrotation Zrotation
									JOINT LeftForeArm
									{
										OFFSET 29.960503 0.000000 0.000000
										CHANNELS 3 Xrotation Yrotation Zrotation
										JOINT LeftHand
										{
											OFFSET 27.849251 0.000000 0.000000
											CHANNELS 3 Xrotation Yrotation Zrotation
											End Site
											{
												OFFSET 0 0 0
											}
										}
									}
								}
							}
						}
						JOINT RightShoulder_virtual
						{
							OFFSET 0.000000 0.000000 0.000000
							CHANNELS 3 Xrotation Yrotation Zrotation
							JOINT RightShoulder
							{
								OFFSET -15.263000 10.923401 -0.547700
								CHANNELS 3 Xrotation Yrotation Zrotation
								JOINT RightArm
								{
									OFFSET -25.438599 -2.830597 -13.032500
									CHANNELS 3 Xrotation Yrotation Zrotation
									JOINT RightForeArm
									{
										OFFSET -29.960503 0.000000 0.000000
										CHANNELS 3 Xrotation Yrotation Zrotation
										JOINT RightHand
										{
											OFFSET -27.849251 0.000000 0.000000
											CHANNELS 3 Xrotation Yrotation Zrotation
											End Site
											{
												OFFSET 0 0 0
											}
										}
									}
								}
							}
						}
					}
				}
			}
		}
	}
}
MOTION
Frames: 13
Frame Time: 0.03333333
2.803167 84.963760 118.964348 0.000000 0.000000 0.000000 2.833632 -5.841584 -3.729052 -53.688156 6.895501 11.467446 41.145046 -4.814314 2.846664 1.788777 -9.131584 -5.294540 0.000000 0.000000 0.000000 2.032371 -4.489199 -4.277618 -20.889702 2.086412 9.763496 42.784117 3.896277 -1.327274 -23.347521 1.600049 3.042582 0.000000 0.000000 0.000000 2.244424 -4.059711 -3.483980 -1.048910 -1.113058 -1.592939 15.028672 5.594309 3.517145 19.208983 8.345351 2.772440 0.000000 0.000000 0.000000 19.530321 7.542680 2.384504 -4.949527 2.509644 -5.153986 0.000000 0.000000 0.000000 19.838822 7.833589 2.079358 -4.472143 -15.213331 -10.006375 -17.104100 -0.794318 -63.364621 1.654269 -57.398642 1.046915 0.000000 0.000000 0.000000 19.730402 8.208526 2.449352 0.208990 17.036505 4.929099 -46.253628 10.340442 38.025815 -177.393892 75.433169 177.316929 0.000000 0.000000 0.000000 
2.422771 85.518341 117.260582 0.000000 0.000000 0.000000 0.817943 -6.121111 -4.393853 -52.325458 7.126489 13.507731 43.277438 -2.092734 2.790423 -1.241112 -6.715955 -6.307694 0.000000 0.000000 0.000000 -0.126214 -4.917183 -4.869609 -20.131938 1.039718 9.784646 41.968306 4.324645 -0.732615 -22.514503 1.850056 1.712948 0.000000 0.000000 0.000000 0.295420 -4.110879 -4.156805 -0.934982 -1.005616 -1.482923 14.688733 5.554975 3.649809 18.330447 7.985052 2.726037 0.000000 0.000000 0.000000 18.618469 7.228057 2.352545 -4.942395 2.399780 -4.785621 0.000000 0.000000 0.000000 18.974342 7.545584 2.031678 -3.803817 -14.026004 -9.621816 -19.476035 0.489138 -65.111811 1.459316 -51.816455 1.085407 0.000000 0.000000 0.000000 18.790248 7.915532 2.432233 0.235015 14.861295 6.449036 -49.238072 11.112664 36.069631 -176.527496 75.957782 176.653936 0.000000 0.000000 0.000000 
2.132062 85.957169 115.692764 0.000000 0.000000 0.000000 -0.936513 -6.300031 -4.769107 -50.777764 7.387940 15.331290 45.780190 -0.014150 2.540664 -3.422138 -5.049024 -8.489490 0.000000 0.000000 0.000000 -2.116365 -5.084865 -5.193969 -19.435337 0.464472 9.998138 41.259701 4.480737 -0.595016 -21.635855 1.661168 0.413396 0.000000 0.000000 0.000000 -1.571637 -3.962469 -4.595696 -0.890565 -0.891985 -1.315230 14.385968 5.404534 3.709899 17.518278 7.440773 2.605980 0.000000 0.000000 0.000000 17.773093 6.720977 2.259640 -4.913369 2.257887 -4.270583 0.000000 0.000000 0.000000 18.114818 7.072657 1.927262 -3.139188 -12.959475 -9.237324 -21.777821 2.078421 -66.460541 1.292553 -46.347109 1.158819 0.000000 0.000000 0.000000 17.953154 7.441310 2.334523 0.335033 12.550728 7.777688 -54.073764 11.196543 35.234303 -176.309258 76.481023 176.427652 0.000000 0.000000 0.000000 
1.924831 86.289886 114.275604 0.000000 0.000000 0.000000 -2.404826 -6.189435 -4.916546 -48.992879 7.574354 16.764708 48.702432 1.420047 2.184222 -3.972303 -4.119334 -11.289625 0.000000 0.000000 0.000000 -3.838813 -4.883907 -5.331277 -18.729535 0.284445 10.402282 40.612387 4.433251 -0.748292 -20.971358 1.051505 -0.753457 0.000000 0.000000 0.000000 -3.314527 -3.632431 -4.865506 -0.879585 -0.709535 -1.146965 14.114910 5.137731 3.702486 16.717825 6.747879 2.452737 0.000000 0.000000 0.000000 16.953334 6.055408 2.132172 -4.845771 2.083537 -3.642616 0.000000 0.000000 0.000000 17.219252 6.440761 1.790571 -2.516044 -12.052628 -8.908108 -23.646899 3.813289 -67.459449 1.146285 -41.638715 1.200390 0.000000 0.000000 0.000000 17.142655 6.804323 2.191936 0.479226 10.158288 8.927339 -60.391276 10.420150 35.124244 -176.910902 76.219775 176.846561 0.000000 0.000000 0.000000 
1.760893 86.481987 112.939079 0.000000 0.000000 0.000000 -3.712314 -5.735094 -5.013615 -47.249152 7.724289 17.890227 52.681338 2.671130 1.780163 -2.842995 -3.379637 -13.086395 0.000000 0.000000 0.000000 -5.288221 -4.279990 -5.425650 -18.306346 0.021711 10.837906 40.356326 4.191600 -0.866458 -20.608663 0.111025 -1.651900 0.000000 0.000000 0.000000 -4.832222 -3.173583 -5.053475 -0.892433 -0.488261 -0.976476 13.854249 4.757689 3.684185 15.886072 5.954172 2.319325 0.000000 0.000000 0.000000 16.075586 5.289109 2.030760 -4.734968 1.891717 -2.967085 0.000000 0.000000 0.000000 16.240745 5.699955 1.669091 -1.952390 -11.318317 -8.649903 -24.671878 5.539855 -68.240946 1.062920 -38.426713 1.229995 0.000000 0.000000 0.000000 16.259919 6.059153 2.056219 0.626841 7.855241 9.891621 -67.645538 8.933641 35.015177 -178.052964 74.566842 177.691032 0.000000 0.000000 0.000000 
1.622912 86.507881 111.596695 0.000000 0.000000 0.000000 -4.929786 -4.956420 -5.215718 -45.627405 7.705117 18.706010 57.980117 4.034570 1.384737 -0.737679 -2.373780 -12.854801 0.000000 0.000000 0.000000 -6.507353 -3.381258 -5.575365 -18.463784 -0.557977 11.239132 40.720645 3.831837 -0.833477 -20.137319 -0.967977 -2.172423 0.000000 0.000000 0.000000 -6.102046 -2.700246 -5.242536 -0.917116 -0.361358 -0.901641 13.608372 4.300832 3.670044 14.971797 5.131060 2.239246 0.000000 0.000000 0.000000 15.093869 4.491173 1.998801 -4.582998 1.705150 -2.318081 0.000000 0.000000 0.000000 15.138479 4.915299 1.598600 -1.453278 -10.719764 -8.460815 -24.731118 7.155793 -68.865799 1.081112 -37.057601 1.268228 0.000000 0.000000 0.000000 15.248165 5.264372 1.965906 0.751562 5.743861 10.520845 -75.297932 7.103890 34.123014 -179.212976 71.413179 178.542347 0.000000 0.000000 0.000000 
1.500650 86.427490 110.395676 0.000000 0.000000 0.000000 -5.957810 -3.956854 -5.499277 -44.070597 7.335263 19.123973 64.417099 5.343248 1.120409 1.267991 -0.962555 -10.543348 0.000000 0.000000 0.000000 -7.418471 -2.378384 -5.830279 -19.264424 -1.332370 11.576237 41.556585 3.471229 -0.696719 -19.333533 -1.979671 -2.355480 0.000000 0.000000 0.000000 -7.025929 -2.212589 -5.478887 -0.899362 -0.280196 -0.828694 13.386957 3.810905 3.626144 13.956663 4.328462 2.220443 0.000000 0.000000 0.000000 14.002541 3.717365 2.034463 -4.398571 1.544549 -1.780887 0.000000 0.000000 0.000000 13.931029 4.153348 1.582935 -1.021868 -10.211567 -8.306468 -23.890388 8.600144 -69.357825 1.164853 -37.324255 1.316473 0.000000 0.000000 0.000000 14.107261 4.476993 1.927959 0.823099 3.876222 10.675730 -82.962285 5.356204 32.344241 179.921567 67.448842 179.150056 0.000000 0.000000 0.000000 
1.377501 86.247421 109.358002 0.000000 0.000000 0.000000 -6.658982 -3.069965 -5.832488 -42.131216 6.644304 19.194932 70.940633 6.245544 1.071010 1.918287 0.432052 -7.199055 0.000000 0.000000 0.000000 -8.007353 -1.550494 -6.140754 -20.547789 -1.982653 11.854294 42.640618 3.226048 -0.658520 -18.225335 -2.766850 -2.375787 0.000000 0.000000 0.000000 -7.553474 -1.830922 -5.748160 -0.925744 -0.253743 -0.750311 13.173499 3.325376 3.513511 12.837651 3.569979 2.227691 0.000000 0.000000 0.000000 12.808754 2.985709 2.102896 -4.198133 1.430597 -1.412134 0.000000 0.000000 0.000000 12.651078 3.439179 1.603695 -0.667631 -9.790138 -8.171628 -22.436946 9.836010 -69.650062 1.287595 -38.539523 1.400363 0.000000 0.000000 0.000000 12.881730 3.733804 1.935693 0.820929 2.334205 10.230522 -90.099484 3.974998 29.996019 179.284652 64.076723 179.566807 0.000000 0.000000 0.000000 
1.334926 86.051224 108.380707 0.000000 0.000000 0.000000 -6.921654 -2.616397 -6.113996 -39.318691 5.975396 19.093478 75.857604 6.317913 1.320643 0.957202 0.853504 -4.668293 0.000000 0.000000 0.000000 -8.184306 -1.129542 -6.397000 -22.021628 -2.121136 12.112367 43.479581 3.156980 -0.896643 -17.123940 -3.282481 -2.348897 0.000000 0.000000 0.000000 -7.714802 -1.718058 -6.017499 -0.945050 -0.249007 -0.710083 12.923690 2.829136 3.277962 11.651668 2.852948 2.246474 0.000000 0.000000 0.000000 11.590140 2.284961 2.156042 -4.000257 1.365144 -1.241865 0.000000 0.000000 0.000000 11.369979 2.768135 1.637174 -0.399705 -9.507983 -8.053286 -20.829958 10.799683 -69.610269 1.392313 -39.907078 1.500827 0.000000 0.000000 0.000000 11.648678 3.040256 1.982059 0.742463 1.089706 9.177711 -96.073741 2.977716 27.523975 178.694360 62.375063 179.961291 0.000000 0.000000 0.000000 
1.374389 85.898918 107.408539 0.000000 0.000000 0.000000 -6.650200 -2.638601 -6.273359 -35.564771 5.693890 18.974233 78.176774 5.459271 1.875067 -0.484490 -0.019718 -3.958393 0.000000 0.000000 0.000000 -7.832973 -1.170701 -6.575560 -23.474175 -1.837811 12.249801 43.750193 3.255050 -1.280028 -16.365939 -3.573079 -2.271287 0.000000 0.000000 0.000000 -7.496687 -1.934586 -6.253857 -0.940912 -0.167915 -0.660877 12.599016 2.315252 2.931112 10.476312 2.141935 2.263943 0.000000 0.000000 0.000000 10.398230 1.592084 2.176869 -3.819960 1.348809 -1.260262 0.000000 0.000000 0.000000 10.177849 2.102285 1.674427 -0.225769 -9.430789 -7.999944 -19.305501 11.445778 -69.204009 1.437350 -40.880567 1.600487 0.000000 0.000000 0.000000 10.476227 2.381691 2.058421 0.611738 0.173599 7.756004 -100.322146 2.191545 25.174681 178.097852 62.923931 -179.653004 0.000000 0.000000 0.000000 
1.464338 85.776176 106.344345 0.000000 0.000000 0.000000 -6.061423 -3.105552 -6.363023 -31.137497 6.298379 18.998569 77.618748 4.092112 2.396417 -1.013934 -1.596832 -4.922754 0.000000 0.000000 0.000000 -7.130426 -1.678353 -6.687115 -25.005550 -1.513636 12.231282 43.723278 3.477255 -1.546297 -15.594206 -3.722048 -1.977328 0.000000 0.000000 0.000000 -6.988346 -2.407980 -6.432074 -0.962382 -0.017524 -0.644475 12.140870 1.781557 2.513236 9.360431 1.411218 2.309132 0.000000 0.000000 0.000000 9.272720 0.874015 2.189321 -3.674905 1.359547 -1.423991 0.000000 0.000000 0.000000 9.126811 1.410713 1.731618 -0.137813 -9.585107 -8.034649 -17.953516 11.736733 -68.455919 1.400785 -41.353455 1.665739 0.000000 0.000000 0.000000 9.411730 1.710008 2.176103 0.468608 -0.459816 6.244382 -102.519336 1.628246 22.914441 177.422401 65.477793 -179.167542 0.000000 0.000000 0.000000 
1.602603 85.743347 105.072029 0.000000 0.000000 0.000000 -5.338095 -3.756604 -6.420349 -26.413750 7.740631 18.988160 74.538005 2.741281 2.695163 -0.471579 -3.148501 -6.634970 0.000000 0.000000 0.000000 -6.271455 -2.377255 -6.754574 -26.785657 -1.412574 12.057357 43.514657 3.746542 -1.561657 -14.068083 -3.817853 -1.380839 0.000000 0.000000 0.000000 -6.336632 -3.046480 -6.537654 -0.938117 0.141578 -0.669913 11.554555 1.225958 2.076889 8.382254 0.640847 2.410597 0.000000 0.000000 0.000000 8.275348 0.119148 2.233908 -3.575579 1.381988 -1.667518 0.000000 0.000000 0.000000 8.268270 0.671449 1.830172 -0.110349 -9.908899 -8.148233 -16.770804 11.737584 -67.412717 1.284528 -41.460249 1.696691 0.000000 0.000000 0.000000 8.478792 1.001322 2.335846 0.354899 -0.881392 4.969564 -102.789866 1.331997 20.680594 176.714493 69.061921 -178.607562 0.000000 0.000000 0.000000 
1.741747 85.731094 103.603683 0.000000 0.000000 0.000000 -4.589144 -4.405978 -6.470552 -21.537398 9.293102 18.510352 69.967761 1.780652 2.995531 -0.449202 -4.074407 -7.984017 0.000000 0.000000 0.000000 -5.459711 -2.986288 -6.833634 -28.673093 -1.457587 11.892572 43.048124 4.014679 -1.405873 -11.794712 -3.905845 -0.765420 0.000000 0.000000 0.000000 -5.620168 -3.607660 -6.584421 -0.851609 0.194957 -0.682881 10.900655 0.684492 1.678648 7.579422 -0.158035 2.565201 0.000000 0.000000 0.000000 7.414298 -0.660274 2.330186 -3.527319 1.394625 -1.922398 0.000000 0.000000 0.000000 7.595555 -0.096943 1.972325 -0.133084 -10.310875 -8.320009 -15.784770 11.575467 -66.150423 1.065093 -41.419811 1.679082 0.000000 0.000000 0.000000 7.684899 0.251675 2.521063 0.277252 -1.218418 4.084977 -101.629547 1.419780 18.555068 176.097535 72.677468 -178.044576 0.000000 0.000000 0.000000 
